<svg xmlns="http://www.w3.org/2000/svg" xmlns:xlink="http://www.w3.org/1999/xlink" width="44" height="45" viewBox="0 0 44 45">
  <defs>
    <polygon id="group-6-a" points="0 .775 43.449 .775 43.449 44.224 0 44.224"/>
  </defs>
  <g fill="none" fill-rule="evenodd">
    <path fill="#D43021" d="M19.8296379,24.3959741 C19.4362759,24.0026121 18.7977414,24.0026121 18.4043793,24.3959741 L11.4611897,31.3383879 C11.0678276,31.7325259 11.0678276,32.3702845 11.4611897,32.7644224 C11.8545517,33.1577845 12.4923103,33.1577845 12.8864483,32.7644224 L19.8296379,25.8212328 C20.2237759,25.4278707 20.2237759,24.7901121 19.8296379,24.3959741"/>
    <g transform="translate(0 .001)">
      <mask id="group-6-b" fill="#fff">
        <use xlink:href="#group-6-a"/>
      </mask>
      <path fill="#D43021" d="M29.9188707,23.331569 L27.4035259,23.2617414 C27.0396466,23.2508793 26.6990431,23.4386379 26.5112845,23.7505345 L22.0167155,31.2345 L13.7460259,39.5044138 L4.71964655,30.4780345 L12.9903362,22.2073448 L20.4743017,17.7127759 C20.7861983,17.5257931 20.973181,17.1844138 20.9630948,16.8205345 L20.8924914,14.3051897 L21.9018879,13.2950172 L30.9282672,22.3221724 L29.9188707,23.331569 Z M8.39800862,42.2082931 C6.69343966,42.2082931 5.09050862,41.544931 3.88481897,40.3392414 C2.67990517,39.1335517 2.01576724,37.5306207 2.01576724,35.8260517 C2.01576724,34.4023448 2.47973276,33.0507931 3.3339569,31.9420862 L12.2819741,40.8901034 C11.1724914,41.7435517 9.82171552,42.2082931 8.39800862,42.2082931 L8.39800862,42.2082931 Z M35.013181,7.28984483 C35.14275,7.16027586 35.2350776,6.99812069 35.2793017,6.82044828 L35.7246466,5.03208621 L39.57525,3.01872414 L41.2053362,4.64803448 L39.1919741,8.49941379 L37.4028362,8.94475862 C37.2259397,8.98975862 37.0637845,9.08131034 36.9342155,9.21010345 L28.8008534,17.3434655 L26.879819,15.4239828 L35.013181,7.28984483 Z M31.0376638,25.0632931 L33.0665431,23.0351897 C33.2558534,22.8458793 33.3613707,22.5898448 33.3613707,22.3221724 C33.3613707,22.0545 33.2558534,21.7984655 33.0665431,21.6091552 L30.2261121,18.7687241 L38.1624052,10.8339828 L40.1191293,10.3459655 C40.3984397,10.2761379 40.6350776,10.089931 40.7685259,9.83467241 L43.3350776,4.9257931 C43.5391293,4.53553448 43.4654224,4.05837931 43.1543017,3.74648276 L40.4775776,1.06975862 C40.1664569,0.757862069 39.6885259,0.685706897 39.2974914,0.888982759 L34.3893879,3.45553448 C34.1341293,3.58898276 33.9479224,3.82562069 33.8788707,4.10493103 L33.3908534,6.06165517 L25.4545603,13.9987241 L22.6141293,11.1582931 C22.2207672,10.7641552 21.5822328,10.7641552 21.1896466,11.1582931 L19.1599914,13.1863966 C18.9636983,13.3826897 18.8574052,13.6503621 18.8651638,13.9273448 L18.9311121,16.2882931 L11.8467155,20.5423448 C11.7761121,20.5850172 11.7109397,20.6354483 11.65275,20.6944138 L2.45956034,29.8868276 C0.873698276,31.4726897 7.75862069e-05,33.5822586 7.75862069e-05,35.8260517 C7.75862069e-05,38.069069 0.873698276,40.1778621 2.45956034,41.7645 C4.04619828,43.3503621 6.15499138,44.2247586 8.39878448,44.2239833 C10.6418017,44.2247586 12.7505948,43.3503621 14.3372328,41.7645 L23.5296466,32.5713103 C23.5878362,32.5138966 23.6390431,32.4487241 23.6809397,32.3781207 L27.9365431,25.2921724 L30.2967155,25.3588966 C30.5736983,25.3666552 30.8413707,25.2595862 31.0376638,25.0632931 L31.0376638,25.0632931 Z" mask="url(#group-6-b)"/>
    </g>
  </g>
</svg>
