<svg xmlns="http://www.w3.org/2000/svg" xmlns:xlink="http://www.w3.org/1999/xlink" width="44" height="45" viewBox="0 0 44 45">
  <defs>
    <polygon id="group-20-a" points="0 .532 43.693 .532 43.693 44.224 0 44.224"/>
  </defs>
  <g fill="none" fill-rule="evenodd">
    <g transform="translate(0 .244)">
      <mask id="group-20-b" fill="#fff">
        <use xlink:href="#group-20-a"/>
      </mask>
      <path fill="#D43021" d="M37.042681,26.0255172 L37.042681,20.7690517 L41.6769052,16.1348276 L41.6769052,21.392069 L37.042681,26.0255172 Z M41.6769052,28.9093966 L37.042681,28.9093966 L37.042681,28.8768103 L41.6769052,24.2425862 L41.6769052,28.9093966 Z M37.042681,12.6605172 L41.6769052,8.02706897 L41.6769052,13.2843103 L37.042681,17.9185345 L37.042681,12.6605172 Z M34.4132845,7.18137931 L39.0482845,2.54715517 L41.6769052,2.54715517 L41.6769052,5.17655172 L37.042681,9.81077586 L37.042681,8.19 C37.042681,7.63293103 36.5911293,7.18137931 36.0348362,7.18137931 L34.4132845,7.18137931 Z M35.0269914,35.5585345 L30.3935431,35.5585345 L30.3935431,14.8383621 C30.3935431,14.282069 29.9427672,13.8305172 29.3856983,13.8305172 L8.66552586,13.8305172 L8.66552586,9.19784483 L35.0269914,9.19784483 L35.0269914,35.5585345 Z M2.01561207,42.2076724 L28.3778534,42.2076724 L28.3778534,15.845431 L2.01561207,15.845431 L2.01561207,42.2076724 Z M15.3146638,2.54715517 L19.98225,2.54715517 L15.34725,7.18137931 L15.3146638,7.18137931 L15.3146638,2.54715517 Z M28.0900086,2.54715517 L23.4550086,7.18137931 L18.1985431,7.18137931 L22.8327672,2.54715517 L28.0900086,2.54715517 Z M36.1969914,2.54715517 L31.5635431,7.18137931 L26.3063017,7.18137931 L30.9405259,2.54715517 L36.1969914,2.54715517 Z M43.691819,1.53931034 C43.691819,0.983017241 43.2410431,0.532241379 42.6839741,0.532241379 L14.306819,0.532241379 C13.7505259,0.532241379 13.2989741,0.983017241 13.2989741,1.53931034 L13.2989741,7.18137931 L7.65768103,7.18137931 C7.10061207,7.18137931 6.64983621,7.63293103 6.64983621,8.19 L6.64983621,13.8305172 L1.00776724,13.8305172 C0.451474138,13.8305172 -7.75862069e-05,14.282069 -7.75862069e-05,14.8383621 L-7.75862069e-05,43.2162931 C-7.75862069e-05,43.7725862 0.451474138,44.2241379 1.00776724,44.2241379 L29.3856983,44.2241379 C29.9427672,44.2241379 30.3935431,43.7725862 30.3935431,43.2162931 L30.3935431,37.575 L36.0348362,37.575 C36.5911293,37.575 37.042681,37.1234483 37.042681,36.5671552 L37.042681,30.9243103 L42.6839741,30.9243103 C43.2410431,30.9243103 43.6925948,30.4735345 43.6925948,29.9172414 L43.691819,1.53931034 Z" mask="url(#group-20-b)"/>
    </g>
    <path fill="#D43021" d="M13.6683621 25.986181L16.7244828 25.986181C17.2815517 25.986181 17.7331034 25.5354052 17.7331034 24.9783362 17.7331034 24.4220431 17.2815517 23.9704914 16.7244828 23.9704914L13.6683621 23.9704914C13.1112931 23.9704914 12.6605172 24.4220431 12.6605172 24.9783362 12.6605172 25.5354052 13.1112931 25.986181 13.6683621 25.986181M13.6683621 34.572181L16.7244828 34.572181C17.2815517 34.572181 17.7331034 34.1206293 17.7331034 33.5643362 17.7331034 33.0072672 17.2815517 32.5557155 16.7244828 32.5557155L13.6683621 32.5557155C13.1112931 32.5557155 12.6605172 33.0072672 12.6605172 33.5643362 12.6605172 34.1206293 13.1112931 34.572181 13.6683621 34.572181M6.13093966 21.6939569L6.13093966 21.6939569 9.18783621 21.693181C9.74490517 21.693181 10.195681 21.2424052 10.195681 20.6853362 10.195681 20.1290431 9.74412931 19.6774914 9.18783621 19.6774914L9.18706034 19.6774914 6.13093966 19.6782672C5.57387069 19.6782672 5.12309483 20.1290431 5.12309483 20.6861121 5.12309483 21.2424052 5.57464655 21.6939569 6.13093966 21.6939569M21.2057069 21.6939569L21.2057069 21.6939569 24.2626034 21.693181C24.8188966 21.693181 25.2696724 21.2424052 25.2696724 20.6853362 25.2696724 20.1290431 24.8188966 19.6774914 24.2618276 19.6774914L21.204931 19.6782672C20.6486379 19.6782672 20.1978621 20.1290431 20.1978621 20.6861121 20.1978621 21.2424052 20.6486379 21.6939569 21.2057069 21.6939569M6.13093966 38.8644052L9.18706034 38.865181 9.18783621 38.865181C9.74412931 38.865181 10.195681 38.4136293 10.195681 37.8573362 10.195681 37.3002672 9.74490517 36.8487155 9.18783621 36.8487155L6.13093966 36.8487155C5.57464655 36.8487155 5.12309483 37.2994914 5.12309483 37.8565603 5.12309483 38.4128534 5.57387069 38.8644052 6.13093966 38.8644052M21.2050086 38.8644052L24.2619052 38.865181C24.8189741 38.865181 25.26975 38.4136293 25.26975 37.8573362 25.26975 37.3002672 24.8189741 36.8487155 24.262681 36.8487155L21.2057845 36.8487155C20.6487155 36.8487155 20.1979397 37.2994914 20.1979397 37.8565603 20.1979397 38.4128534 20.6487155 38.8644052 21.2050086 38.8644052M6.13093966 30.279181L9.18783621 30.279181C9.74412931 30.279181 10.195681 29.8276293 10.195681 29.2713362 10.195681 28.7142672 9.74412931 28.2627155 9.18783621 28.2627155L6.13093966 28.2627155C5.57464655 28.2627155 5.12309483 28.7142672 5.12309483 29.2713362 5.12309483 29.8276293 5.57464655 30.279181 6.13093966 30.279181M24.2622155 28.2630259L21.2060948 28.2630259C20.6490259 28.2630259 20.19825 28.7145776 20.19825 29.2716466 20.19825 29.8279397 20.6490259 30.2794914 21.2060948 30.2794914L24.2622155 30.2794914C24.8192845 30.2794914 25.2700603 29.8279397 25.2700603 29.2716466 25.2700603 28.7145776 24.8192845 28.2630259 24.2622155 28.2630259"/>
  </g>
</svg>
