<svg xmlns="http://www.w3.org/2000/svg" width="45" height="38" viewBox="0 0 45 38">
  <path fill="#D43021" fill-rule="evenodd" d="M326.626518,325.098243 L339.105877,325.098243 L339.105877,319.780937 L326.626518,319.780937 L326.626518,325.098243 Z M312.260321,325.098243 L324.739679,325.098243 L324.739679,319.780937 L312.260321,319.780937 L312.260321,325.098243 Z M297.886838,325.098243 L310.366197,325.098243 L310.366197,319.780937 L297.886838,319.780937 L297.886838,325.098243 Z M297.886838,296.219795 L310.366197,296.219795 L310.366197,290.901757 L297.886838,290.901757 L297.886838,296.219795 Z M312.260321,296.219795 L324.739679,296.219795 L324.739679,290.901757 L312.260321,290.901757 L312.260321,296.219795 Z M319.443419,303.43959 L331.922778,303.43959 L331.922778,298.121552 L319.443419,298.121552 L319.443419,303.43959 Z M333.816901,303.43959 L339.105877,303.43959 L339.105877,298.121552 L333.816901,298.121552 L333.816901,303.43959 Z M333.816901,317.87918 L339.105877,317.87918 L339.105877,312.561142 L333.816901,312.561142 L333.816901,317.87918 Z M297.886838,303.43959 L303.183099,303.43959 L303.183099,298.121552 L297.886838,298.121552 L297.886838,303.43959 Z M297.886838,310.659385 L310.366197,310.659385 L310.366197,305.341347 L297.886838,305.341347 L297.886838,310.659385 Z M312.260321,310.659385 L324.739679,310.659385 L324.739679,305.341347 L312.260321,305.341347 L312.260321,310.659385 Z M326.626518,310.659385 L339.105877,310.659385 L339.105877,305.341347 L326.626518,305.341347 L326.626518,310.659385 Z M305.077222,303.43959 L317.549296,303.43959 L317.549296,298.121552 L305.077222,298.121552 L305.077222,303.43959 Z M297.886838,317.87918 L303.183099,317.87918 L303.183099,312.561142 L297.886838,312.561142 L297.886838,317.87918 Z M305.077222,317.87918 L317.549296,317.87918 L317.549296,312.561142 L305.077222,312.561142 L305.077222,317.87918 Z M319.443419,317.87918 L331.922778,317.87918 L331.922778,312.561142 L319.443419,312.561142 L319.443419,317.87918 Z M341,297.170673 C341,296.645824 340.577465,296.219795 340.052938,296.219795 L326.626518,296.219795 L326.626518,289.950878 C326.626518,289.426029 326.203983,289 325.686741,289 L296.939777,289 C296.422535,289 296,289.426029 296,289.950878 L296,326.049122 C296,326.574703 296.422535,327 296.939777,327 L340.052938,327 C340.577465,327 341,326.574703 341,326.049122 L341,297.170673 L341,297.170673 Z" transform="translate(-296 -289)"/>
</svg>
