<svg xmlns="http://www.w3.org/2000/svg" width="44" height="45" viewBox="0 0 44 45">
  <g fill="#D43021" fill-rule="evenodd">
    <path d="M35.7225517,42.5537069 L35.7225517,5.48767241 C35.7225517,4.93060345 35.2717759,4.47982759 34.7147069,4.47982759 L8.73496552,4.47982759 C8.17789655,4.47982759 7.72712069,4.93060345 7.72712069,5.48767241 L7.72712069,42.5537069 L5.26298276,42.5537069 L5.26298276,2.01568966 L38.1866897,2.01568966 L38.1866897,42.5537069 L35.7225517,42.5537069 Z M9.74281034,42.5537069 L33.7076379,42.5537069 L33.7076379,6.49474138 L9.74281034,6.49474138 L9.74281034,42.5537069 Z M42.4415172,42.5537069 L40.2016034,42.5537069 L40.2016034,1.00784483 C40.2016034,0.450775862 39.7508276,0 39.1945345,0 L4.25513793,0 C3.69884483,0 3.24806897,0.450775862 3.24806897,1.00784483 L3.24806897,42.5537069 L1.00815517,42.5537069 C0.451086207,42.5537069 0.000310344828,43.0044828 0.000310344828,43.5615517 C0.000310344828,44.1186207 0.451086207,44.5693966 1.00815517,44.5693966 L42.4415172,44.5693966 C42.9985862,44.5693966 43.4493621,44.1186207 43.4493621,43.5615517 C43.4493621,43.0044828 42.9985862,42.5537069 42.4415172,42.5537069 L42.4415172,42.5537069 Z"/>
    <path d="M30.4309397 24.8445L26.8076638 24.8445C26.2513707 24.8445 25.799819 25.2960517 25.799819 25.8523448 25.799819 26.4094138 26.2513707 26.8601897 26.8076638 26.8601897L30.4309397 26.8601897C30.9880086 26.8601897 31.4387845 26.4094138 31.4387845 25.8523448 31.4387845 25.2960517 30.9880086 24.8445 30.4309397 24.8445M16.7867069 38.0742672L14.2217069 38.0742672 14.2217069 24.0210776 16.9519655 25.6534914C17.1141207 25.7504741 17.2917931 25.7970259 17.4686897 25.7970259 17.8108448 25.7970259 18.1452414 25.621681 18.3345517 25.306681 18.620069 24.82875 18.4641207 24.2096121 17.9869655 23.9240948L14.2217069 21.6717672 14.2217069 18.624181 16.9519655 20.2565948C17.1141207 20.3535776 17.2917931 20.4001293 17.4686897 20.4001293 17.8108448 20.4001293 18.1452414 20.2247845 18.3345517 19.9090086 18.620069 19.4318534 18.4641207 18.8127155 17.9869655 18.5271983L14.2217069 16.2748707 14.2217069 10.974181 16.7867069 10.974181C19.3245517 14.6378017 20.7164483 19.4271983 20.7164483 24.5246121 20.7164483 29.62125 19.3245517 34.4106466 16.7867069 38.0742672M17.3057586 8.95926724L13.2146379 8.95926724C12.657569 8.95926724 12.2067931 9.4100431 12.2067931 9.96633621L12.2067931 39.0821121C12.2067931 39.639181 12.657569 40.0899569 13.2146379 40.0899569L17.3057586 40.0899569C17.6269655 40.0899569 17.9287759 39.9371121 18.1188621 39.6779741 21.0942931 35.6225431 22.7329138 30.2403879 22.7329138 24.5246121 22.7329138 18.8080603 21.0942931 13.4259052 18.1188621 9.37047414 17.9287759 9.11133621 17.6269655 8.95926724 17.3057586 8.95926724"/>
  </g>
</svg>
