<svg xmlns="http://www.w3.org/2000/svg" xmlns:xlink="http://www.w3.org/1999/xlink" width="31" height="45" viewBox="0 0 31 45">
  <defs>
    <polygon id="group-16-a" points="0 .348 30.838 .348 30.838 44.318 0 44.318"/>
  </defs>
  <g fill="none" fill-rule="evenodd">
    <g transform="translate(0 .334)">
      <mask id="group-16-b" fill="#fff">
        <use xlink:href="#group-16-a"/>
      </mask>
      <path fill="#D43021" d="M29.067,33.4359545 C29.067,35.3266364 27.5288182,36.8648182 25.6388182,36.8648182 L5.19995455,36.8648182 C3.30995455,36.8648182 1.77109091,35.3266364 1.77109091,33.4359545 L1.77109091,5.54822727 C1.77109091,3.65686364 3.30995455,2.11868182 5.19995455,2.11868182 L25.6388182,2.11868182 C27.5288182,2.11868182 29.067,3.65686364 29.067,5.54822727 L29.067,33.4359545 Z M25.6388182,0.348 L5.19995455,0.348 C2.33290909,0.348 -0.000272727273,2.68118182 -0.000272727273,5.54822727 L-0.000272727273,33.4359545 C-0.000272727273,36.3036818 2.33290909,38.6361818 5.19995455,38.6361818 L10.5972273,38.6361818 L10.5972273,43.4320909 C10.5972273,43.9216364 10.9940455,44.3184545 11.4829091,44.3184545 C11.9717727,44.3184545 12.3685909,43.9216364 12.3685909,43.4320909 L12.3685909,38.6361818 L14.5340455,38.6361818 L14.5340455,43.4320909 C14.5340455,43.9216364 14.9301818,44.3184545 15.4190455,44.3184545 C15.9085909,44.3184545 16.3054091,43.9216364 16.3054091,43.4320909 L16.3054091,38.6361818 L18.4701818,38.6361818 L18.4701818,43.4320909 C18.4701818,43.9216364 18.867,44.3184545 19.3558636,44.3184545 C19.8447273,44.3184545 20.2415455,43.9216364 20.2415455,43.4320909 L20.2415455,38.6361818 L25.6388182,38.6361818 C28.5058636,38.6361818 30.8383636,36.3036818 30.8383636,33.4359545 L30.8383636,5.54822727 C30.8383636,2.68118182 28.5058636,0.348 25.6388182,0.348 L25.6388182,0.348 Z" mask="url(#group-16-b)"/>
    </g>
    <path fill="#D43021" d="M12.7360227 27.6190227L7.05443182 27.6190227C6.56556818 27.6190227 6.16875 28.0158409 6.16875 28.5047045 6.16875 28.99425 6.56556818 29.3903864 7.05443182 29.3903864L12.7360227 29.3903864C13.2255682 29.3903864 13.6217045 28.99425 13.6217045 28.5047045 13.6217045 28.0158409 13.2255682 27.6190227 12.7360227 27.6190227M12.7360227 31.5555L7.05443182 31.5555C6.56556818 31.5555 6.16875 31.9516364 6.16875 32.4411818 6.16875 32.9307273 6.56556818 33.3268636 7.05443182 33.3268636L12.7360227 33.3268636C13.2255682 33.3268636 13.6217045 32.9307273 13.6217045 32.4411818 13.6217045 31.9516364 13.2255682 31.5555 12.7360227 31.5555M23.7842727 27.6190227L18.102 27.6190227C17.6131364 27.6190227 17.2163182 28.0158409 17.2163182 28.5047045 17.2163182 28.99425 17.6131364 29.3903864 18.102 29.3903864L23.7842727 29.3903864C24.2731364 29.3903864 24.6699545 28.99425 24.6699545 28.5047045 24.6699545 28.0158409 24.2731364 27.6190227 23.7842727 27.6190227M23.7842727 31.5555L18.102 31.5555C17.6131364 31.5555 17.2163182 31.9516364 17.2163182 32.4411818 17.2163182 32.9307273 17.6131364 33.3268636 18.102 33.3268636L23.7842727 33.3268636C24.2731364 33.3268636 24.6699545 32.9307273 24.6699545 32.4411818 24.6699545 31.9516364 24.2731364 31.5555 23.7842727 31.5555M16.9281136 14.1897273L15.2126591 14.1897273 16.2428864 11.5838182C16.4228864 11.1290455 16.1999318 10.6142727 15.7451591 10.4342727 15.2903864 10.2549545 14.7756136 10.4779091 14.5956136 10.9326818L13.08675 14.7495C12.9790227 15.0229091 13.0131136 15.3310909 13.1781136 15.5731364 13.3431136 15.8158636 13.6172045 15.9610909 13.9103864 15.9610909L15.6258409 15.9610909 14.5956136 18.567C14.4156136 19.0224545 14.63925 19.5365455 15.0940227 19.7158636 15.2003864 19.7588182 15.3108409 19.7785909 15.41925 19.7785909 15.77175 19.7785909 16.1051591 19.5665455 16.2428864 19.2181364L17.75175 15.4006364C17.8594773 15.1285909 17.8253864 14.8197273 17.6603864 14.577 17.4960682 14.3349545 17.2212955 14.1897273 16.9281136 14.1897273"/>
    <path fill="#D43021" d="M15.4193182,22.6378636 C11.2493182,22.6378636 7.85659091,19.2451364 7.85659091,15.0751364 C7.85659091,10.9051364 11.2493182,7.51240909 15.4193182,7.51240909 C19.5893182,7.51240909 22.9820455,10.9051364 22.9820455,15.0751364 C22.9820455,19.2451364 19.5893182,22.6378636 15.4193182,22.6378636 M15.4193182,5.74172727 C10.2729545,5.74172727 6.08522727,9.92877273 6.08522727,15.0751364 C6.08522727,20.2221818 10.2729545,24.4099091 15.4193182,24.4099091 C20.5656818,24.4099091 24.7534091,20.2221818 24.7534091,15.0751364 C24.7534091,9.92877273 20.5656818,5.74172727 15.4193182,5.74172727"/>
  </g>
</svg>
