<svg xmlns="http://www.w3.org/2000/svg" xmlns:xlink="http://www.w3.org/1999/xlink" width="45" height="45" viewBox="0 0 45 45">
  <defs>
    <polygon id="group-3-a" points="0 0 44.657 0 44.657 44.657 0 44.657"/>
  </defs>
  <g fill="none" fill-rule="evenodd">
    <mask id="group-3-b" fill="#fff">
      <use xlink:href="#group-3-a"/>
    </mask>
    <path fill="#D43021" d="M39.6587368,42.6059211 L38.0442632,42.6059211 L42.6058421,38.0451316 L42.6058421,39.6588158 C42.6058421,41.2835526 41.2842632,42.6059211 39.6587368,42.6059211 L39.6587368,42.6059211 Z M2.05057895,34.2667105 L11.2542632,25.0630263 L15.9926842,29.8014474 L3.56321053,42.2309211 C2.66242105,41.7264474 2.05057895,40.7632895 2.05057895,39.6588158 L2.05057895,34.2667105 Z M4.99847368,2.05144737 L6.61294737,2.05144737 L2.05057895,6.61223684 L2.05057895,4.99776316 C2.05057895,3.37302632 3.37294737,2.05144737 4.99847368,2.05144737 L4.99847368,2.05144737 Z M42.6058421,10.3898684 L33.4021579,19.5935526 L28.6637368,14.8559211 L41.0932105,2.42565789 C41.9947895,2.93092105 42.6058421,3.89407895 42.6058421,4.99776316 L42.6058421,10.3898684 Z M33.4211053,31.9519737 L28.6834737,27.2135526 L42.6058421,13.2903947 L42.6058421,22.7664474 L33.4211053,31.9519737 Z M17.4247895,18.8940789 L31.9708421,33.4022368 L27.2324211,38.1406579 L12.7053158,23.6127632 L17.4247895,18.8940789 Z M2.05057895,21.8901316 L11.2361053,12.7053947 L15.9737368,17.4430263 L2.05057895,31.3669737 L2.05057895,21.8901316 Z M15.9745263,5.06644737 L2.05057895,18.9896053 L2.05057895,9.51276316 L9.51268421,2.05144737 L12.9587368,2.05144737 L15.9745263,5.06644737 Z M31.9518947,21.0438158 L27.2324211,25.7632895 L12.7053158,11.2361842 L17.4247895,6.51671053 L31.9518947,21.0438158 Z M31.9518947,8.66644737 L27.2134737,13.4048684 L15.8592632,2.05144737 L25.3361053,2.05144737 L31.9518947,8.66644737 Z M29.0908421,2.05144737 L38.5668947,2.05144737 L33.4021579,7.21618421 L28.6637368,2.47855263 L29.0908421,2.05144737 Z M12.7045263,35.9901316 L17.4429474,31.2517105 L28.7971579,42.6059211 L19.3203158,42.6059211 L12.7045263,35.9901316 Z M15.5647895,42.6059211 L6.08952632,42.6059211 L11.2542632,37.4403947 L15.9926842,42.1788158 L15.5647895,42.6059211 Z M35.1437368,42.6059211 L31.6976842,42.6059211 L28.6826842,39.5909211 L42.6058421,25.6677632 L42.6058421,35.1438158 L35.1437368,42.6059211 Z M39.6587368,-0.000394736842 L4.99847368,-0.000394736842 C2.24163158,-0.000394736842 0.000315789474,2.24171053 0.000315789474,4.99776316 L0.000315789474,39.6588158 C0.000315789474,42.4148684 2.24163158,44.6569737 4.99847368,44.6569737 L39.6587368,44.6569737 C42.4147895,44.6569737 44.6568947,42.4148684 44.6568947,39.6588158 L44.6568947,4.99776316 C44.6568947,2.24171053 42.4147895,-0.000394736842 39.6587368,-0.000394736842 L39.6587368,-0.000394736842 Z" mask="url(#group-3-b)"/>
  </g>
</svg>
