<svg xmlns="http://www.w3.org/2000/svg" width="45" height="41" viewBox="0 0 45 41">
  <g fill="#D43021" fill-rule="evenodd">
    <path d="M38.7118636,36.3237273 L38.3334545,35.6678182 C38.0614091,35.1980455 37.4600455,35.0357727 36.9895909,35.3078182 C36.5184545,35.5798636 36.3575455,36.1819091 36.6289091,36.6516818 L37.0086818,37.3096364 C36.1536818,37.6894091 35.2311818,37.9444091 34.2636818,38.0473636 L34.2636818,37.2857727 C34.2636818,36.7423636 33.8232273,36.3019091 33.2798182,36.3019091 C32.7357273,36.3019091 32.2952727,36.7423636 32.2952727,37.2857727 L32.2952727,38.0473636 C31.3277727,37.9444091 30.4052727,37.6900909 29.5502727,37.3096364 L29.9300455,36.6516818 C30.2014091,36.1812273 30.0398182,35.5791818 29.5693636,35.3078182 C29.0982273,35.0350909 28.4968636,35.1980455 28.2255,35.6685 L27.8464091,36.3237273 C27.0786818,35.7612273 26.4009545,35.0835 25.8384545,34.3150909 L26.4943636,33.936 C26.9648182,33.6646364 27.1257273,33.0625909 26.8536818,32.5914545 C26.5816364,32.1216818 25.9802727,31.9600909 25.5091364,32.2321364 L24.8518636,32.6119091 C24.4720909,31.7569091 24.2170909,30.8337273 24.1141364,29.8662273 L33.1823182,29.8662273 C33.483,29.8662273 33.7673182,29.7285 33.9534545,29.4925909 L39.678,22.2571364 C40.0584545,22.6246364 40.4075455,23.0228182 40.7205,23.4496364 L40.0652727,23.8287273 C39.5941364,24.1000909 39.4332273,24.7021364 39.7052727,25.1732727 C39.8873182,25.4882727 40.218,25.6648636 40.5582273,25.6648636 C40.7252727,25.6648636 40.8943636,25.6225909 41.0491364,25.5332727 L41.7064091,25.1535 C42.0861818,26.0085 42.3398182,26.931 42.4427727,27.8985 L41.6825455,27.8985 C41.1398182,27.8985 40.6993636,28.3389545 40.6993636,28.8823636 C40.6993636,29.4257727 41.1398182,29.8662273 41.6832273,29.8662273 L42.4448182,29.8662273 C42.3411818,30.8337273 42.0868636,31.7562273 41.7070909,32.6119091 L41.0491364,32.2321364 C40.578,31.9600909 39.9759545,32.1216818 39.7052727,32.5921364 C39.4332273,33.0632727 39.5941364,33.6653182 40.0652727,33.9366818 L40.7205,34.3150909 C40.158,35.0835 39.4802727,35.7612273 38.7118636,36.3237273 L38.7118636,36.3237273 Z M18.7155,27.8985 C18.4441364,27.8985 18.1843636,28.011 17.9982273,28.2087273 L15.1352727,31.2578182 C14.2761818,29.7775909 12.7884545,28.7057727 11.0402727,28.4098636 L11.0402727,15.7362273 L39.5934545,15.7362273 L39.5934545,19.1923636 L32.7057273,27.8985 L18.7155,27.8985 Z M10.0557273,38.1005455 C7.90322727,38.1005455 6.15231818,36.3496364 6.15231818,34.1971364 C6.15231818,32.0453182 7.90322727,30.2937273 10.0557273,30.2937273 C12.2082273,30.2937273 13.9591364,32.0453182 13.9591364,34.1971364 C13.9591364,36.3496364 12.2082273,38.1005455 10.0557273,38.1005455 L10.0557273,38.1005455 Z M11.0402727,9.92031818 L29.9034545,9.92031818 L32.8993636,13.7678182 L11.0402727,13.7678182 L11.0402727,9.92031818 Z M21.3132273,5.07940909 C21.3132273,4.42827273 21.843,3.8985 22.4941364,3.8985 L28.2193636,3.8985 C28.8705,3.8985 29.4002727,4.42827273 29.4002727,5.07940909 L29.4002727,7.95327273 L21.3132273,7.95327273 L21.3132273,5.07940909 Z M40.9011818,20.7114545 L41.3491364,20.1448636 C41.4868636,19.9716818 41.5618636,19.7562273 41.5618636,19.5346364 L41.5618636,14.7516818 C41.5618636,14.2082727 41.1207273,13.7678182 40.5773182,13.7678182 L35.3934545,13.7678182 L31.368,8.59895455 L31.368,5.07940909 C31.368,3.3435 29.9552727,1.93077273 28.2193636,1.93077273 L22.4941364,1.93077273 C20.7582273,1.93077273 19.3455,3.3435 19.3455,5.07940909 L19.3455,7.95327273 L10.6352727,7.95327273 L6.50959091,0.507136364 C6.33572727,0.194181818 6.00640909,0.000545454545 5.64845455,0.000545454545 L0.984136364,0.000545454545 C0.440727273,0.000545454545 0.000272727273,0.440318182 0.000272727273,0.984409091 C0.000272727273,1.52781818 0.440727273,1.96827273 0.984136364,1.96827273 L5.06890909,1.96827273 L9.07186364,9.19145455 L9.07186364,28.4098636 C6.30095455,28.8796364 4.18390909,31.2946364 4.18390909,34.1971364 C4.18390909,37.4350909 6.81845455,40.0689545 10.0557273,40.0689545 C13.2936818,40.0689545 15.9275455,37.4350909 15.9275455,34.1971364 C15.9275455,33.9114545 15.9057273,33.6305455 15.8661818,33.3550909 L19.1416364,29.8662273 L22.1382273,29.8662273 C22.6386818,35.5750909 27.4427727,40.0689545 33.2791364,40.0689545 C39.4475455,40.0689545 44.4657273,35.0507727 44.4657273,28.8823636 C44.4657273,25.6587273 43.0905,22.7541818 40.9011818,20.7114545 L40.9011818,20.7114545 Z"/>
    <path d="M20.4419318 20.8330227L28.3735227 20.8330227C28.9176136 20.8330227 29.3580682 20.3925682 29.3580682 19.8491591 29.3580682 19.30575 28.9176136 18.8646136 28.3735227 18.8646136L20.4419318 18.8646136C19.8985227 18.8646136 19.4580682 19.30575 19.4580682 19.8491591 19.4580682 20.3925682 19.8985227 20.8330227 20.4419318 20.8330227M29.3577955 23.7853636C29.3577955 23.2419545 28.9173409 22.8015 28.3739318 22.8015L20.4416591 22.8015C19.89825 22.8015 19.4577955 23.2419545 19.4577955 23.7853636 19.4577955 24.3287727 19.89825 24.7692273 20.4416591 24.7692273L28.3739318 24.7692273C28.9173409 24.7692273 29.3577955 24.3287727 29.3577955 23.7853636"/>
  </g>
</svg>
