<svg xmlns="http://www.w3.org/2000/svg" width="40" height="42" viewBox="0 0 40 42">
  <path fill="#D43021" fill-rule="evenodd" d="M922.816436,446.477326 L922.144055,447.150923 L914.434309,439.419579 C914.26588,439.250012 914.044194,439.165228 913.823174,439.165228 C913.601488,439.165228 913.380468,439.250012 913.211374,439.419579 L907.956817,444.688856 L904.396526,441.118592 L910.99052,434.506128 C911.48715,434.008774 912.146882,433.734395 912.84922,433.734395 C913.550893,433.734395 914.211291,434.008774 914.707921,434.506128 L923.222527,443.047923 L922.816436,446.477326 Z M917.657077,451.651137 L916.985362,452.324734 L913.564873,452.734634 L912.363908,451.529636 C912.532336,450.229841 912.124247,448.867961 911.130987,447.871251 L909.179751,445.915216 L910.558465,444.53264 L917.657077,451.651137 Z M909.907387,452.825426 L902.827416,459.92523 L901.575189,458.669496 C901.237667,458.331029 900.690442,458.331029 900.352255,458.669496 C900.014733,459.008631 900.014733,459.557389 900.352255,459.895856 L901.604481,461.15159 L900.464762,462.294502 L899.213201,461.038768 C898.875014,460.7003 898.327789,460.7003 897.990267,461.038768 C897.652079,461.377235 897.652079,461.926661 897.990267,462.265128 L899.241828,463.520862 L898.102774,464.663106 L896.850548,463.40804 C896.513026,463.068905 895.965801,463.068905 895.627613,463.40804 C895.290092,463.746507 895.290092,464.295265 895.627613,464.633732 L896.87984,465.889466 L891.307732,471.477183 C890.801116,471.985218 890.127404,472.265605 889.41042,472.265605 C888.694101,472.265605 888.020389,471.985218 887.513107,471.477183 C886.467255,470.427734 886.467255,468.721377 887.513107,467.671928 L903.473833,451.667159 C903.811355,451.328024 903.811355,450.779267 903.473833,450.440799 L899.287097,446.242335 L903.173592,442.344953 L909.907387,449.097611 C910.932602,450.125697 910.932602,451.797339 909.907387,452.825426 Z M924.747035,442.119308 L915.930855,433.279767 C915.107355,432.454628 914.012905,432 912.84922,432 C911.68487,432 910.59042,432.454628 909.767585,433.279767 L897.453028,445.629488 C897.11484,445.967956 897.11484,446.517381 897.453028,446.855849 L899.132649,448.540175 L895.991764,451.690525 C895.653577,452.028992 895.653577,452.57775 895.991764,452.916885 C896.160192,453.085785 896.381878,453.170569 896.602899,453.170569 C896.824585,453.170569 897.045605,453.085785 897.214699,452.916218 L900.355583,449.766535 L901.639099,451.053646 L886.290173,466.445568 C884.569942,468.170617 884.569942,470.977827 886.290173,472.703543 C887.123659,473.539364 888.232089,474 889.41042,474 C890.589416,474 891.697181,473.539364 892.530667,472.703543 L911.130322,454.051786 C911.354005,453.827476 911.546399,453.584474 911.710833,453.32812 L912.639517,454.259406 C912.80262,454.422965 913.022974,454.51309 913.250652,454.51309 C913.284604,454.51309 913.319221,454.511087 913.353173,454.507081 L917.487983,454.011063 C917.680377,453.988365 917.859457,453.900911 917.996596,453.763388 L919.491812,452.263984 C919.653583,452.10176 919.744787,451.880788 919.744787,451.651137 C919.744787,451.420819 919.653583,451.200515 919.491812,451.037623 L911.7814,443.30628 L913.823174,441.259454 L921.531589,448.990797 C921.704677,449.159697 921.924366,449.24448 922.144055,449.24448 C922.363744,449.24448 922.59009,449.159697 922.756521,448.990797 L924.247742,447.491393 C924.387544,447.354537 924.474088,447.174288 924.500717,446.981355 L924.993352,442.834963 C925.026639,442.571265 924.933437,442.3069 924.747035,442.119308 L924.747035,442.119308 Z" transform="translate(-885 -432)"/>
</svg>
