<svg xmlns="http://www.w3.org/2000/svg" xmlns:xlink="http://www.w3.org/1999/xlink" width="45" height="37" viewBox="0 0 45 37">
  <defs>
    <polygon id="group-12-a" points="0 .025 44.749 .025 44.749 36.29 0 36.29"/>
  </defs>
  <g fill="none" fill-rule="evenodd">
    <g transform="translate(0 .701)">
      <mask id="group-12-b" fill="#fff">
        <use xlink:href="#group-12-a"/>
      </mask>
      <path fill="#D43021" d="M39.6563226,8.82798387 L38.2214032,10.4254839 L34.0647097,10.4254839 L34.0647097,4.25758065 L38.2214032,4.25758065 L39.6563226,5.85508065 L39.6563226,8.82798387 Z M30.7114839,12.7727419 L3.35366129,12.7727419 C2.5443871,12.7727419 1.88535484,12.1137097 1.88535484,11.3044355 L1.88535484,3.37862903 C1.88535484,2.56862903 2.5443871,1.91032258 3.35366129,1.91032258 L30.7114839,1.91032258 C31.5207581,1.91032258 32.1797903,2.56862903 32.1797903,3.37862903 L32.1797903,11.3044355 C32.1797903,12.1137097 31.5207581,12.7727419 30.7114839,12.7727419 L30.7114839,12.7727419 Z M16.2766452,18.3955645 L14.3213226,18.3955645 L14.3213226,14.6583871 L17.5301129,14.6583871 L16.2766452,18.3955645 Z M20.079871,28.7339516 L20.079871,32.9370968 C20.079871,33.746371 19.4215645,34.4046774 18.6115645,34.4046774 L6.96745161,34.4046774 C6.15817742,34.4046774 5.49987097,33.746371 5.49987097,32.9370968 L5.49987097,31.8360484 L13.5352742,31.8360484 C14.0564032,31.8360484 14.4780968,31.413629 14.4780968,30.8932258 C14.4780968,30.3720968 14.0564032,29.9504032 13.5352742,29.9504032 L5.49987097,29.9504032 L5.49987097,28.4958871 C6.81285484,26.9223387 8.44083871,24.8864516 8.45753226,24.8646774 C8.59108065,24.6970161 8.6643871,24.4901613 8.6643871,24.2760484 L8.6643871,14.6583871 L12.4356774,14.6583871 L12.4356774,24.2760484 C12.4356774,24.6295161 12.6338226,24.9539516 12.9488226,25.1150806 C12.9829355,25.1325 16.2984194,26.8287097 20.079871,28.7339516 L20.079871,28.7339516 Z M43.8057581,6.39870968 L41.5419677,6.39870968 L41.5419677,5.49362903 C41.5419677,5.26064516 41.4555968,5.03637097 41.3002742,4.86362903 L39.3427742,2.68475806 C39.1642258,2.48516129 38.9094677,2.37120968 38.6416452,2.37120968 L33.9101129,2.37120968 C33.4818871,1.0125 32.2102742,0.0246774194 30.7114839,0.0246774194 L3.35366129,0.0246774194 C1.50430645,0.0246774194 -0.000290322581,1.52927419 -0.000290322581,3.37862903 L-0.000290322581,11.3044355 C-0.000290322581,13.1537903 1.50430645,14.6583871 3.35366129,14.6583871 L6.77874194,14.6583871 L6.77874194,23.9443548 C6.26559677,24.5837903 4.89817742,26.2814516 3.83487097,27.5465323 C3.6926129,27.716371 3.61422581,27.9312097 3.61422581,28.1525806 L3.61422581,32.9370968 C3.61422581,34.7857258 5.11882258,36.2903226 6.96745161,36.2903226 L18.6115645,36.2903226 C20.4609194,36.2903226 21.9655161,34.7857258 21.9655161,32.9370968 L21.9655161,28.1525806 C21.9655161,27.7969355 21.7644677,27.4710484 21.4465645,27.3106452 C18.3408387,25.7479839 15.4593871,24.2804032 14.3213226,23.6990323 L14.3213226,20.2812097 L16.9545484,20.2812097 C17.3595484,20.2812097 17.7195484,20.0220968 17.8487419,19.6381452 L19.5180968,14.6583871 L30.7114839,14.6583871 C32.2102742,14.6583871 33.4818871,13.6698387 33.9101129,12.311129 L38.6416452,12.311129 C38.9094677,12.311129 39.1642258,12.1979032 39.3427742,11.9983065 L41.3002742,9.81943548 C41.4555968,9.64596774 41.5419677,9.42169355 41.5419677,9.18943548 L41.5419677,8.28435484 L43.8057581,8.28435484 C44.3268871,8.28435484 44.7493065,7.86193548 44.7493065,7.34153226 C44.7493065,6.82112903 44.3268871,6.39870968 43.8057581,6.39870968 L43.8057581,6.39870968 Z" mask="url(#group-12-b)"/>
    </g>
    <path fill="#D43021" d="M12.2982097 5.21433871L5.79425806 5.21433871C5.27312903 5.21433871 4.85143548 5.63675806 4.85143548 6.15716129 4.85143548 6.67756452 5.27312903 7.09998387 5.79425806 7.09998387L12.2982097 7.09998387C12.8186129 7.09998387 13.2410323 6.67756452 13.2410323 6.15716129 13.2410323 5.63675806 12.8186129 5.21433871 12.2982097 5.21433871M12.2982097 8.98548387L5.79425806 8.98548387C5.27312903 8.98548387 4.85143548 9.40790323 4.85143548 9.92830645 4.85143548 10.4494355 5.27312903 10.871129 5.79425806 10.871129L12.2982097 10.871129C12.8186129 10.871129 13.2410323 10.4494355 13.2410323 9.92830645 13.2410323 9.40790323 12.8186129 8.98548387 12.2982097 8.98548387M18.8404113 6.15708871C17.8003306 6.15708871 16.9547661 7.00337903 16.9547661 8.04273387 16.9547661 9.08281452 17.8003306 9.92837903 18.8404113 9.92837903 19.8797661 9.92837903 20.7260565 9.08281452 20.7260565 8.04273387 20.7260565 7.00337903 19.8797661 6.15708871 18.8404113 6.15708871M25.061879 6.15708871C24.0225242 6.15708871 23.1762339 7.00337903 23.1762339 8.04273387 23.1762339 9.08281452 24.0225242 9.92837903 25.061879 9.92837903 26.1019597 9.92837903 26.9475242 9.08281452 26.9475242 8.04273387 26.9475242 7.00337903 26.1019597 6.15708871 25.061879 6.15708871"/>
  </g>
</svg>
