<svg xmlns="http://www.w3.org/2000/svg" width="35" height="44" viewBox="0 0 35 44">
  <path fill="#D43021" fill-rule="evenodd" d="M30.3945448,39.0402079 L18.5530102,19.5776078 C19.2609643,19.385052 19.8820939,19.0065121 20.3696472,18.4985064 L32.2178607,37.9676783 C32.5184072,38.461226 32.3514369,39.1032979 31.850526,39.3990321 C31.850526,39.3996893 31.850526,39.3996893 31.850526,39.3996893 C31.6835557,39.496953 31.4965489,39.5475565 31.3095422,39.5475565 C30.9288499,39.5475565 30.5882304,39.3576293 30.3945448,39.0402079 Z M18.3660034,30.7589915 L18.3660034,29.8560163 C18.3660034,29.384813 17.9786323,29.00233 17.4977578,29.00233 C17.0168833,29.00233 16.6295121,29.384813 16.6295121,29.8560163 L16.6295121,30.7589915 L11.6604756,30.7589915 L17.4977578,21.1660294 L23.33504,30.7589915 L18.3660034,30.7589915 Z M4.60097069,39.0395507 C4.40728512,39.3576293 4.06666568,39.5475565 3.69265218,39.5475565 C3.49896661,39.5475565 3.31195986,39.4962959 3.14498955,39.3990321 C2.9045523,39.2564225 2.73090317,39.0283785 2.66411504,38.7582746 C2.5906481,38.4881706 2.63739979,38.2068945 2.78433367,37.9683355 L14.6258684,18.4985064 C15.1134217,19.0065121 15.7412301,19.385052 16.4425054,19.5776078 L4.60097069,39.0395507 Z M17.4977578,18.0148166 C16.2755351,18.0148166 15.280392,17.0362648 15.280392,15.8336121 C15.280392,14.6303023 16.2755351,13.6517505 17.4977578,13.6517505 C18.7199805,13.6517505 19.7151235,14.6303023 19.7151235,15.8336121 C19.7151235,17.0362648 18.7199805,18.0148166 17.4977578,18.0148166 Z M10.39818,15.8336121 C10.39818,11.9805234 13.5839736,8.84574023 17.4977578,8.84574023 C21.4115419,8.84574023 24.5973355,11.9805234 24.5973355,15.8336121 C24.5973355,17.3254272 24.1097822,18.746266 23.2548942,19.9160593 L21.3313962,16.7582746 C21.4048631,16.461226 21.4516148,16.152348 21.4516148,15.8336121 C21.4516148,13.6892102 19.6750507,11.9443781 17.4977578,11.9443781 C15.3204649,11.9443781 13.5439007,13.6892102 13.5439007,15.8336121 C13.5439007,16.152348 13.5906524,16.461226 13.6641194,16.7582746 L11.7406213,19.9167165 C10.8857333,18.746266 10.39818,17.3254272 10.39818,15.8336121 Z M16.4358266,1.70737245 L18.559689,1.70737245 L18.559689,7.20342932 C18.2123907,7.16202653 17.8584136,7.13836779 17.4977578,7.13836779 C17.1371019,7.13836779 16.7831248,7.16202653 16.4358266,7.20342932 L16.4358266,1.70737245 Z M34.8760281,42.7079699 L33.4133681,40.3079221 C34.1881104,39.4338631 34.3417231,38.1365755 33.7072359,37.0909906 L24.2099644,21.4847652 C25.5590845,19.9338033 26.3338268,17.9392401 26.3338268,15.8336121 C26.3338268,12.000239 23.8025568,8.74059027 20.2961802,7.58722667 L20.2961802,0.853686223 C20.2961802,0.381825786 19.9088091,0 19.4279346,0 L15.5675809,0 C15.0933852,0 14.7060141,0.381825786 14.7060141,0.853686223 L14.7060141,7.58722667 C11.1996375,8.74059027 8.66168873,12.000239 8.66168873,15.8336121 C8.66168873,17.9392401 9.43643099,19.9338033 10.7855511,21.4847652 L1.29495847,37.0909906 C0.907587336,37.7212331 0.800726335,38.461226 0.981054275,39.1736169 C1.08791528,39.6007886 1.29495847,39.9859003 1.58214741,40.3085793 L0.119487453,42.7079699 C-0.1209498,43.11214 0.0126264515,43.6365755 0.420034018,43.8790775 C0.560289082,43.961226 0.713901772,44 0.867514461,44 C1.16138221,44 1.44857115,43.8521329 1.60886266,43.5846577 L3.07152261,41.1852671 C3.27188699,41.230613 3.47893018,41.2549289 3.69265218,41.2549289 C4.66775881,41.2549289 5.58943495,40.7423229 6.09034589,39.9168957 L10.6252596,32.4670211 L16.6295121,32.4670211 L16.6295121,33.3699964 C16.6295121,33.8411997 17.0168833,34.2236826 17.4977578,34.2236826 C17.9786323,34.2236826 18.3660034,33.8411997 18.3660034,33.3699964 L18.3660034,32.4670211 L24.3769347,32.4670211 L28.9051696,39.9168957 C29.4060806,40.7423229 30.3277567,41.2549289 31.3095422,41.2549289 C31.5165854,41.2549289 31.7236285,41.230613 31.9239929,41.1852671 L33.3866529,43.5846577 C33.5469444,43.8521329 33.8341333,44 34.1280011,44 C34.2816138,44 34.4352265,43.961226 34.5754815,43.8790775 C34.9895679,43.6365755 35.1231441,43.11214 34.8760281,42.7079699 L34.8760281,42.7079699 Z"/>
</svg>
