<svg xmlns="http://www.w3.org/2000/svg" width="45" height="42" viewBox="0 0 45 42">
  <path fill="#D43021" fill-rule="evenodd" d="M618.929672,758.681295 C618.420489,759.19656 617.59013,759.19656 617.080947,758.681295 L598.202019,739.610965 C597.692837,739.0957 597.692837,738.257505 598.202019,737.742241 L601.593959,734.319807 C601.8368,734.070486 602.165811,733.933557 602.518322,733.933557 C602.862999,733.933557 603.19201,734.071277 603.442684,734.320599 L622.313778,753.390929 C622.564453,753.641042 622.697624,753.971888 622.697624,754.324895 C622.697624,754.677903 622.564453,755.00954 622.313778,755.258862 L618.929672,758.681295 Z M611.346766,730.433557 C611.848116,729.929373 612.662808,729.929373 613.164157,730.432765 C613.657673,730.93774 613.657673,731.758523 613.164157,732.263498 L612.717643,732.710694 C611.425102,734.016664 611.425102,736.141833 612.717643,737.449387 C614.010184,738.754565 616.117417,738.754565 617.409957,737.448595 L619.564192,735.269604 C620.065541,734.76542 620.8724,734.766212 621.373749,735.269604 C621.875098,735.774579 621.875098,736.595361 621.373749,737.100336 L619.219514,739.278536 C617.926974,740.584506 617.926974,742.710468 619.219514,744.017229 C620.512055,745.322408 622.619288,745.322408 623.911829,744.017229 L627.781617,740.106442 C628.275133,739.602259 629.089825,739.602259 629.591174,740.106442 C630.092523,740.611417 630.092523,741.4322 629.591174,741.936383 L621.72626,749.884597 L606.91296,734.918179 L611.346766,730.433557 Z M592.937854,767.269038 C592.044825,768.169762 590.595613,768.169762 589.702585,767.269038 C588.809557,766.367523 588.809557,764.901671 589.702585,764.000155 L597.802507,755.816867 L601.037775,759.08575 L592.937854,767.269038 Z M624.734355,754.324895 C624.734355,753.422589 624.389677,752.574895 623.755157,751.936949 L623.159805,751.338577 L631.024719,743.391155 C632.325094,742.084393 632.325094,739.959224 631.024719,738.652462 C629.732179,737.346492 627.632779,737.346492 626.340238,738.652462 L622.47045,742.562458 C621.969101,743.067433 621.154409,743.067433 620.660893,742.563249 C620.159544,742.058274 620.159544,741.237492 620.660893,740.732516 L622.815128,738.554316 C624.107668,737.248346 624.107668,735.122385 622.815128,733.815624 C621.522587,732.509653 619.415354,732.510445 618.122813,733.815624 L615.968579,735.994615 C615.46723,736.498799 614.660371,736.498799 614.159022,735.994615 C613.657673,735.48964 613.657673,734.668857 614.159022,734.164674 L614.597702,733.717478 C615.890243,732.411508 615.890243,730.286338 614.597702,728.978785 C613.305161,727.673606 611.205762,727.673606 609.913221,728.979577 L605.471582,733.464199 L604.876229,732.866619 C604.249543,732.228672 603.41135,731.877247 602.518322,731.877247 C601.625294,731.877247 600.787101,732.228672 600.152581,732.865827 L599.181217,733.850449 L596.65097,731.293122 C596.455131,731.099997 596.196623,730.992354 595.930281,730.992354 C595.656106,730.992354 595.397598,731.099997 595.209592,731.293122 L593.517539,733.004339 C590.423274,736.132335 590.423274,741.22087 593.517539,744.348866 L602.236313,753.156646 L600.144747,755.269943 L598.523196,753.636293 C598.123684,753.235004 597.48133,753.235004 597.081817,753.636293 L588.26904,762.546175 C586.576987,764.249477 586.576987,767.019717 588.26904,768.723018 L588.26904,768.72381 C589.95326,770.425529 592.695013,770.425529 594.379232,768.723018 L603.199843,759.813136 C603.387849,759.620011 603.497519,759.358817 603.497519,759.08575 C603.497519,758.812684 603.387849,758.55149 603.199843,758.359156 L601.578292,756.724714 L604.390547,753.884032 C604.586387,753.690906 604.688224,753.429712 604.688224,753.156646 C604.688224,752.884371 604.586387,752.622385 604.390547,752.430051 L594.951084,742.894886 C592.655845,740.568677 592.655845,736.784529 594.951084,734.458319 L595.930281,733.474488 L597.739838,735.30443 L596.768474,736.28826 C595.460266,737.605312 595.460266,739.747894 596.768474,741.064945 L615.639568,760.135275 C616.947776,761.452326 619.062843,761.451535 620.371051,760.135275 L623.755157,756.712842 C624.389677,756.074895 624.734355,755.227202 624.734355,754.324895 L624.734355,754.324895 Z" transform="translate(-587 -728)"/>
</svg>
