<svg xmlns="http://www.w3.org/2000/svg" xmlns:xlink="http://www.w3.org/1999/xlink" width="40" height="45" viewBox="0 0 40 45">
  <defs>
    <polygon id="group-10-a" points="0 .542 39.288 .542 39.288 44.307 0 44.307"/>
  </defs>
  <g fill="none" fill-rule="evenodd">
    <path fill="#D43021" d="M11.7804462 17.5300615C9.82190769 16.5483692 6.75221538 16.5483692 4.79367692 17.5300615 4.34990769 17.7522923 4.1706 18.2936769 4.39283077 18.7367538 4.61506154 19.1812154 5.15575385 19.3605231 5.59952308 19.1376 5.86813846 19.0032923 6.17067692 18.8946 6.49467692 18.8094462 6.49190769 18.8523692 6.48775385 18.8966769 6.48775385 18.9409846 6.48775385 19.9323692 7.29498462 20.7396 8.28706154 20.7396 9.27913846 20.7396 10.0856769 19.9323692 10.0856769 18.9409846 10.0856769 18.8966769 10.0822154 18.8523692 10.0787538 18.8094462 10.4034462 18.8946 10.7059846 19.0032923 10.9739077 19.1376 11.1033692 19.2026769 11.2411385 19.2338308 11.3761385 19.2338308 11.7063692 19.2338308 12.0234462 19.0517538 12.1812923 18.7367538 12.4035231 18.2936769 12.2242154 17.7522923 11.7804462 17.5300615M17.5108846 19.1378077C17.7795 19.0035 18.0820385 18.8941154 18.4067308 18.8089615 18.4032692 18.8525769 18.3998077 18.8961923 18.3998077 18.9411923 18.3998077 19.9318846 19.2063462 20.7391154 20.1984231 20.7391154 21.1898077 20.7391154 21.9963462 19.9318846 21.9963462 18.9411923 21.9963462 18.8961923 21.9935769 18.8525769 21.9908077 18.8089615 22.3141154 18.8941154 22.6173462 19.0035 22.8859615 19.1378077 23.0147308 19.2028846 23.1518077 19.2340385 23.2881923 19.2340385 23.6170385 19.2340385 23.9348077 19.0519615 24.0926538 18.7369615 24.3148846 18.2931923 24.1355769 17.7525 23.6918077 17.5302692 21.7332692 16.5485769 18.6635769 16.5485769 16.7050385 17.5302692 16.2612692 17.7525 16.0819615 18.2931923 16.3041923 18.7369615 16.5264231 19.1807308 17.0664231 19.3600385 17.5108846 19.1378077"/>
    <g transform="translate(0 .15)">
      <mask id="group-10-b" fill="#fff">
        <use xlink:href="#group-10-a"/>
      </mask>
      <path fill="#D43021" d="M37.4897769,33.0676615 L34.9199308,34.2127385 C34.6845462,34.3179692 34.5059308,34.5180462 34.4283923,34.7638154 C34.3051615,35.1542769 34.1445462,35.5412769 33.9500077,35.9144308 C33.8309308,36.1428923 33.8150077,36.4115077 33.9077769,36.6524308 L34.9157769,39.2818154 L34.2622385,39.9353538 L31.6335462,38.9273538 C31.3926231,38.8345846 31.1247,38.8505077 30.8962385,38.9688923 C30.5223923,39.1641231 30.1347,39.3247385 29.7442385,39.4479692 C29.4984692,39.5255077 29.2983923,39.7041231 29.1938538,39.9395077 L28.0480846,42.5093538 L27.1231615,42.5093538 L25.9787769,39.9395077 C25.8742385,39.7041231 25.6734692,39.5255077 25.4277,39.4479692 C25.0379308,39.3247385 24.6502385,39.1641231 24.2763923,38.9688923 C24.0479308,38.8505077 23.7800077,38.8345846 23.5397769,38.9273538 L20.9103923,39.9353538 L20.2561615,39.2818154 L21.2641615,36.6524308 C21.3569308,36.4115077 21.3417,36.1428923 21.2219308,35.9144308 C21.0280846,35.5412769 20.8660846,35.1549692 20.7435462,34.7631231 C20.6660077,34.5180462 20.4867,34.3172769 20.2520077,34.2120462 L17.6828538,33.0676615 L17.6828538,32.1427385 L20.2527,30.9983538 C20.4873923,30.8931231 20.6660077,30.6923538 20.7442385,30.4465846 C20.8667769,30.0561231 21.0280846,29.6691231 21.2226231,29.2959692 C21.3417,29.0675077 21.3569308,28.7988923 21.2641615,28.5579692 L20.2561615,25.9285846 L20.9103923,25.2750462 L23.5397769,26.2830462 C23.7800077,26.3758154 24.0479308,26.3605846 24.2763923,26.2415077 C24.6502385,26.0462769 25.0379308,25.8856615 25.4277,25.7624308 C25.6734692,25.6855846 25.8742385,25.5062769 25.9787769,25.2708923 L27.1238538,22.7010462 L28.0480846,22.7010462 L29.1938538,25.2708923 C29.2983923,25.5062769 29.4991615,25.6855846 29.7442385,25.7624308 C30.1353923,25.8856615 30.5230846,26.0469692 30.8955462,26.2415077 C31.1240077,26.3605846 31.3919308,26.3758154 31.6335462,26.2837385 L34.2629308,25.2757385 L34.9164692,25.9285846 L33.9077769,28.5579692 C33.8150077,28.7988923 33.8309308,29.0675077 33.9500077,29.2959692 C34.1452385,29.6712 34.3058538,30.0575077 34.4283923,30.4465846 C34.5052385,30.6916615 34.6845462,30.8931231 34.9199308,30.9983538 L37.4897769,32.1427385 L37.4897769,33.0676615 Z M1.79854615,23.7512769 L1.79854615,10.3392 C3.34377692,12.1336615 6.07562308,14.4120462 9.99893077,14.4120462 C10.0460077,14.4120462 10.0930846,14.4113538 10.1401615,14.4106615 C10.6330846,14.4037385 11.0283923,14.0015077 11.0270077,13.5085846 C11.0256231,13.2275077 11.0256231,12.8917385 11.0249308,12.5497385 C12.3853154,13.4691231 14.6643923,14.4605077 18.1854692,14.4106615 C18.6783923,14.4037385 19.0737,14.0015077 19.0723154,13.5085846 C19.0716231,13.1735077 19.0709308,12.7740462 19.0709308,12.3808154 C20.5642385,13.2607385 23.1403154,14.3746615 26.6870077,14.4653538 L26.6870077,20.9031231 L26.5409308,20.9031231 C26.1857769,20.9031231 25.8638538,21.1115077 25.7191615,21.4355077 L24.4951615,24.1812 C24.2667,24.2656615 24.0396231,24.3598154 23.8167,24.4636615 L21.0087,23.3871231 C20.6770846,23.2597385 20.3018538,23.3393538 20.0512385,23.5913538 L18.5717769,25.0701231 C18.3211615,25.3214308 18.2408538,25.6966615 18.3682385,26.0275846 L19.4447769,28.8355846 C19.3409308,29.0592 19.2460846,29.2855846 19.1623154,29.5140462 L16.4173154,30.7380462 C16.0926231,30.8827385 15.8842385,31.2046615 15.8842385,31.5591231 L15.8842385,33.6512769 C15.8842385,34.0057385 16.0926231,34.3283538 16.4173154,34.4723538 L18.5489308,35.4222 C17.2058538,35.9199692 15.7561615,36.1955077 14.2427769,36.1955077 C7.38131538,36.1955077 1.79854615,30.6127385 1.79854615,23.7512769 L1.79854615,23.7512769 Z M8.09093077,2.33958462 L20.3946231,2.33958462 C23.8637769,2.33958462 26.6870077,5.16212308 26.6870077,8.63196923 L26.6870077,12.6688154 C21.6366231,12.5192769 18.8085462,10.0165846 18.7815462,9.99235385 C18.5191615,9.75073846 18.1390846,9.68773846 17.8116231,9.83173846 C17.4855462,9.97435385 17.2750846,10.2962769 17.2737,10.6528154 C17.2737,10.6528154 17.2716231,11.6442 17.2723154,12.6002769 C12.6165462,12.3995077 10.9383923,10.1204308 10.8705462,10.0248923 C10.6483154,9.69950769 10.2391615,9.55689231 9.86323846,9.6732 C9.48662308,9.78881538 9.22977692,10.1370462 9.22839231,10.5302769 C9.22839231,10.5302769 9.22631538,11.5860462 9.22700769,12.5739692 C4.7547,12.1288154 2.21739231,7.9542 1.91485385,7.42943077 C2.47908462,4.53281538 5.03300769,2.33958462 8.09093077,2.33958462 L8.09093077,2.33958462 Z M38.7553154,30.7380462 L36.0103154,29.5147385 C35.9258538,29.2862769 35.8317,29.0592 35.7278538,28.8355846 L36.8050846,26.0282769 C36.9317769,25.6966615 36.8521615,25.3214308 36.6015462,25.0701231 L35.1213923,23.5913538 C34.8707769,23.3393538 34.4948538,23.2597385 34.1632385,23.3871231 L31.3566231,24.4636615 C31.1323154,24.3598154 30.9059308,24.2656615 30.6767769,24.1812 L29.4541615,21.4362 C29.3094692,21.1115077 28.9875462,20.9031231 28.6323923,20.9031231 L28.4856231,20.9031231 L28.4856231,8.63196923 C28.4856231,4.17073846 24.8558538,0.541661538 20.3946231,0.541661538 L8.09093077,0.541661538 C3.6297,0.541661538 -6.92307692e-05,4.17073846 -6.92307692e-05,8.63196923 L-6.92307692e-05,23.7512769 C-6.92307692e-05,31.6048154 6.38923846,37.9941231 14.2427769,37.9941231 C15.9707769,37.9941231 17.6274692,37.6825846 19.1602385,37.1155846 L18.3682385,39.1828154 C18.2408538,39.5144308 18.3211615,39.8896615 18.5717769,40.1402769 L20.0512385,41.6197385 C20.3018538,41.8710462 20.6770846,41.9506615 21.0087,41.8232769 L23.8167,40.7474308 C24.0396231,40.8505846 24.2667,40.9454308 24.4951615,41.0292 L25.7184692,43.7748923 C25.8631615,44.0988923 26.1850846,44.3072769 26.5402385,44.3072769 L28.6317,44.3072769 C28.9868538,44.3072769 29.3087769,44.0988923 29.4534692,43.7748923 L30.6767769,41.0292 C30.9052385,40.9454308 31.1316231,40.8505846 31.3559308,40.7474308 L34.1632385,41.8232769 C34.4955462,41.9506615 34.8707769,41.8710462 35.1213923,41.6204308 L36.6008538,40.1409692 C36.8514692,39.8896615 36.9310846,39.5144308 36.8043923,39.1828154 L35.7278538,36.3748154 C35.8310077,36.1518923 35.9258538,35.9248154 36.0096231,35.6963538 L38.7553154,34.4730462 C39.0793154,34.3283538 39.2883923,34.0064308 39.2883923,33.6519692 L39.2883923,31.5591231 C39.2883923,31.2046615 39.0793154,30.8827385 38.7553154,30.7380462 L38.7553154,30.7380462 Z" mask="url(#group-10-b)"/>
    </g>
    <path fill="#D43021" d="M27.5865923,35.5009846 C26.0718231,35.5009846 24.8409,34.2700615 24.8409,32.7559846 C24.8409,31.2426 26.0718231,30.0109846 27.5865923,30.0109846 C29.1006692,30.0109846 30.3315923,31.2426 30.3315923,32.7559846 C30.3315923,34.2700615 29.1006692,35.5009846 27.5865923,35.5009846 M27.5865923,28.2123692 C25.0811308,28.2123692 23.0429769,30.2505231 23.0429769,32.7559846 C23.0429769,35.2614462 25.0811308,37.3002923 27.5865923,37.3002923 C30.0920538,37.3002923 32.1295154,35.2614462 32.1295154,32.7559846 C32.1295154,30.2505231 30.0920538,28.2123692 27.5865923,28.2123692"/>
  </g>
</svg>
