<svg xmlns="http://www.w3.org/2000/svg" xmlns:xlink="http://www.w3.org/1999/xlink" width="45" height="42" viewBox="0 0 45 42">
  <defs>
    <polygon id="group-3-a" points="0 0 44.513 0 44.513 41.87 0 41.87"/>
  </defs>
  <g fill="none" fill-rule="evenodd">
    <mask id="group-3-b" fill="#fff">
      <use xlink:href="#group-3-a"/>
    </mask>
    <path fill="#D43021" d="M13.3986356,1.98114407 L27.4088898,1.98114407 L25.2328729,9.42216102 L11.2226186,9.42216102 L13.3986356,1.98114407 Z M22.8577881,17.5435169 L8.8475339,17.5435169 L10.6429576,11.4036864 L24.6532119,11.4036864 L22.8577881,17.5435169 Z M20.4827034,25.6656356 L6.47244915,25.6656356 L8.26787288,19.5250424 L22.2781271,19.5250424 L20.4827034,25.6656356 Z M18.1076186,33.7869915 L4.09736441,33.7869915 L5.89278814,27.6463983 L19.9030424,27.6463983 L18.1076186,33.7869915 Z M32.1163475,5.4095339 L28.4705847,5.4095339 L29.4735508,1.98114407 L31.1141441,1.98114407 L32.1163475,5.4095339 Z M44.4722797,40.6010593 L32.8073644,0.712754237 C32.6838051,0.290211864 32.2963475,-0.000381355932 31.8562627,-0.000381355932 L12.6565169,-0.000381355932 C12.2164322,-0.000381355932 11.8289746,0.290211864 11.7054153,0.712754237 L0.0397372881,40.6010593 C-0.113567797,41.1258051 0.18770339,41.6757203 0.713211864,41.8297881 C1.23719492,41.9830932 1.78863559,41.681822 1.94194068,41.1563136 L3.51770339,35.7685169 L17.5279576,35.7685169 L16.1146525,40.6010593 C15.9613475,41.1258051 16.2626186,41.6757203 16.7873644,41.8297881 C16.8804153,41.8564831 16.9742288,41.8702119 17.0665169,41.8702119 C17.495161,41.8702119 17.8902458,41.5895339 18.0168559,41.1563136 L27.8909237,7.39105932 L32.6960085,7.39105932 L35.9947373,18.6723305 L27.7788051,18.6723305 C27.2319407,18.6723305 26.7888051,19.1162288 26.7888051,19.6638559 C26.7888051,20.2099576 27.2319407,20.6538559 27.7788051,20.6538559 L36.5743983,20.6538559 L40.4154153,33.7869915 L26.405161,33.7869915 L25.4441441,30.5012288 C25.290839,29.9757203 24.7393983,29.6744492 24.2154153,29.8277542 C23.6899068,29.981822 23.3886356,30.5325 23.5419407,31.0564831 L26.4959237,41.1563136 C26.6217712,41.5895339 27.0176186,41.8702119 27.4462627,41.8702119 C27.5385508,41.8702119 27.6323644,41.8564831 27.7246525,41.8297881 C28.250161,41.6757203 28.5514322,41.1258051 28.3981271,40.6010593 L26.9840593,35.7685169 L40.9950763,35.7685169 L42.570839,41.1563136 C42.6974492,41.5895339 43.0925339,41.8702119 43.521178,41.8702119 C43.6134661,41.8702119 43.7072797,41.8564831 43.7995678,41.8297881 C44.3250763,41.6757203 44.6263475,41.1258051 44.4722797,40.6010593 L44.4722797,40.6010593 Z" mask="url(#group-3-b)"/>
  </g>
</svg>
