<svg xmlns="http://www.w3.org/2000/svg" xmlns:xlink="http://www.w3.org/1999/xlink" width="39" height="45" viewBox="0 0 39 45">
  <defs>
    <polygon id="group-8-a" points="0 .724 38.892 .724 38.892 44.182 0 44.182"/>
  </defs>
  <g fill="none" fill-rule="evenodd">
    <g transform="translate(0 .094)">
      <mask id="group-8-b" fill="#fff">
        <use xlink:href="#group-8-a"/>
      </mask>
      <path fill="#D43021" d="M20.1306273,42.0561818 C18.4108091,42.0561818 17.0117182,40.6570909 17.0117182,38.9380909 L17.0117182,34.8160909 L36.7667182,34.8160909 L36.7667182,42.0561818 L20.1306273,42.0561818 Z M2.12571818,34.8160909 L14.8869,34.8160909 L14.8869,38.9380909 C14.8869,40.1048182 15.2706273,41.1848182 15.9178091,42.0561818 L2.12571818,42.0561818 L2.12571818,34.8160909 Z M8.11808182,9.73145455 L8.11808182,2.84972727 L12.3693545,2.84972727 L18.2021727,12.4298182 L15.0415364,17.6211818 C14.9400818,17.7872727 14.8869,17.9779091 14.8869,18.1734545 L14.8869,27.9670909 L2.12571818,27.9670909 L2.12571818,19.7288182 C5.7879,17.7668182 8.11808182,13.9148182 8.11808182,9.73145455 L8.11808182,9.73145455 Z M19.4458091,5.661 C20.5544455,5.661 21.6107182,5.51945455 22.5679909,5.25681818 L19.4458091,10.386 L16.3244455,5.25681818 C17.2825364,5.51945455 18.3379909,5.661 19.4458091,5.661 L19.4458091,5.661 Z M2.12571818,32.6912727 L14.8075364,32.6912727 L14.8075364,30.0927273 L2.12571818,30.0927273 L2.12571818,32.6912727 Z M17.0117182,32.6912727 L36.7667182,32.6912727 L36.7667182,30.0927273 L17.0117182,30.0927273 L17.0117182,32.6912727 Z M26.5230818,2.84972727 L30.7743545,2.84972727 L30.7743545,9.73145455 C30.7743545,13.9148182 33.1045364,17.7668182 36.7667182,19.7288182 L36.7667182,27.9670909 L17.0117182,27.9670909 L17.0117182,18.4712727 L26.5230818,2.84972727 Z M38.2729909,18.1047273 C35.0092636,16.6058182 32.8999909,13.3191818 32.8999909,9.73145455 L32.8999909,1.78690909 C32.8999909,1.19945455 32.4238091,0.724090909 31.8371727,0.724090909 L25.9258091,0.724090909 C25.5551727,0.724090909 25.2107182,0.917181818 25.0184455,1.23381818 L24.9906273,1.27881818 L24.9898091,1.28045455 C24.3810818,2.40054545 22.2824455,3.53536364 19.4458091,3.53536364 C16.6230818,3.53536364 14.5318091,2.41118182 13.9116273,1.29681818 L13.8748091,1.23381818 C13.6809,0.917181818 13.3372636,0.724090909 12.9666273,0.724090909 L7.05526364,0.724090909 C6.46862727,0.724090909 5.99244545,1.19945455 5.99244545,1.78690909 L5.99244545,9.73145455 C5.99244545,13.3183636 3.88399091,16.6058182 0.618627273,18.1047273 C0.241445455,18.2781818 8.18181818e-05,18.6545455 8.18181818e-05,19.0701818 L8.18181818e-05,43.119 C8.18181818e-05,43.7064545 0.476263636,44.1818182 1.0629,44.1818182 L37.8295364,44.1818182 C38.4169909,44.1818182 38.8923545,43.7064545 38.8923545,43.119 L38.8923545,19.0701818 C38.8923545,18.6545455 38.6509909,18.2781818 38.2729909,18.1047273 L38.2729909,18.1047273 Z" mask="url(#group-8-b)"/>
    </g>
    <path fill="#D43021" d="M23.5567636 22.4371636L28.1737636 22.4371636C28.7595818 22.4371636 29.2357636 21.9618 29.2357636 21.3743455 29.2357636 20.7877091 28.7595818 20.3115273 28.1737636 20.3115273L23.5567636 20.3115273C22.9693091 20.3115273 22.4931273 20.7877091 22.4931273 21.3743455 22.4931273 21.9618 22.9693091 22.4371636 23.5567636 22.4371636M23.5567636 17.7133909L28.1737636 17.7133909C28.7595818 17.7133909 29.2357636 17.2380273 29.2357636 16.6505727 29.2357636 16.0639364 28.7595818 15.5877545 28.1737636 15.5877545L23.5567636 15.5877545C22.9693091 15.5877545 22.4931273 16.0639364 22.4931273 16.6505727 22.4931273 17.2380273 22.9693091 17.7133909 23.5567636 17.7133909"/>
  </g>
</svg>
