<svg xmlns="http://www.w3.org/2000/svg" xmlns:xlink="http://www.w3.org/1999/xlink" width="45" height="43" viewBox="0 0 45 43">
  <defs>
    <polygon id="group-6-a" points="0 .471 44.507 .471 44.507 42.049 0 42.049"/>
  </defs>
  <g fill="none" fill-rule="evenodd">
    <g transform="translate(0 .267)">
      <mask id="group-6-b" fill="#fff">
        <use xlink:href="#group-6-a"/>
      </mask>
      <path fill="#D43021" d="M42.5902131,21.2689918 L1.91611475,21.2689918 L1.91611475,17.7936639 L3.10013115,17.7936639 C3.58185246,17.7936639 3.98906557,17.435877 4.05029508,16.9578443 C5.12144262,8.65128689 12.2520984,2.38743443 20.6375902,2.38743443 C29.2466066,2.38743443 36.5668525,9.09981148 37.3023443,17.6689918 C37.335541,18.0496475 37.5922623,18.3757131 37.9552131,18.495959 L42.5902131,20.0362869 L42.5902131,21.2689918 Z M25.2423443,23.8376803 C25.2423443,25.5447295 24.2921803,27.0813689 22.762918,27.8471066 C22.4383279,28.0094016 22.2332459,28.3413689 22.2332459,28.7043197 L22.2332459,40.1328443 L19.285377,40.1328443 L19.285377,28.7028443 C19.285377,28.3398934 19.0810328,28.0086639 18.7557049,27.8463689 C18.1382459,27.5365328 17.5901311,27.0769426 17.1718525,26.5177623 C16.990377,26.2757951 16.7063607,26.133418 16.4046393,26.133418 L14.2608689,26.133418 C13.7326721,26.133418 13.3040656,26.5605492 13.3025902,27.0887459 L13.3018525,27.2193197 C13.3018525,27.7342377 12.9787377,28.203418 12.4984918,28.3878443 L5.26013115,31.1623525 L4.36381967,28.8223525 L10.1820984,26.5915328 C10.5524262,26.4498934 10.7973443,26.0943197 10.7973443,25.6974344 L10.7995574,23.1855492 L25.2416066,23.1855492 L25.2423443,23.8376803 Z M43.8509508,18.4354672 L39.1466066,16.8722705 C38.6184098,12.4807131 36.5498852,8.42997541 33.2759508,5.40907377 C29.8249672,2.22440164 25.3367705,0.470877049 20.6375902,0.470877049 C11.575623,0.470877049 3.82677049,7.03718852 2.27685246,15.8771066 L0.957836066,15.8771066 C0.428901639,15.8771066 0.000295081967,16.3064508 0.000295081967,16.8353852 L0.000295081967,22.2272705 C0.000295081967,22.7569426 0.428901639,23.1855492 0.957836066,23.1855492 L8.883,23.1855492 L8.88152459,25.0379262 L2.78218033,27.3764508 C2.28791803,27.566041 2.04078689,28.1200574 2.23037705,28.6143197 L3.81422951,32.7432541 C4.00308197,33.2375164 4.55783607,33.4846475 5.05136066,33.2950574 L13.1845574,30.1775164 C14.135459,29.8130902 14.842918,29.006041 15.1062787,28.0499754 L15.9487377,28.0499754 C16.3611148,28.5206311 16.8413607,28.9300574 17.3695574,29.2612869 L17.3695574,41.091123 C17.3695574,41.6200574 17.7981639,42.0486639 18.3270984,42.0486639 L23.1915246,42.0486639 C23.7211967,42.0486639 24.1498033,41.6200574 24.1498033,41.091123 L24.1498033,29.2642377 C26.020623,28.1001393 27.1589016,26.0714508 27.1589016,23.8354672 L27.1581639,23.1855492 L43.5484918,23.1855492 C44.0781639,23.1855492 44.5075082,22.7569426 44.5075082,22.2272705 L44.5075082,19.3450574 C44.5075082,18.9319426 44.2426721,18.5653033 43.8509508,18.4354672 L43.8509508,18.4354672 Z" mask="url(#group-6-b)"/>
    </g>
    <path fill="#D43021" d="M20.6377377,4.99669672 C14.0883934,4.99669672 8.36380328,9.4192377 6.7172459,15.7502213 C6.58372131,16.2621885 6.89134426,16.785959 7.40404918,16.9194836 C7.48445902,16.9401393 7.56486885,16.9504672 7.64527869,16.9504672 C8.07093443,16.9504672 8.45970492,16.6642377 8.57257377,16.2326803 C9.99929508,10.7456311 14.9610984,6.9132541 20.6377377,6.9132541 C21.1674098,6.9132541 21.5967541,6.48464754 21.5967541,5.95497541 C21.5967541,5.42604098 21.1674098,4.99669672 20.6377377,4.99669672"/>
  </g>
</svg>
