<svg xmlns="http://www.w3.org/2000/svg" xmlns:xlink="http://www.w3.org/1999/xlink" width="45" height="40" viewBox="0 0 45 40">
  <defs>
    <polygon id="group-11-a" points="0 .296 44.507 .296 44.507 39.098 0 39.098"/>
    <polygon id="group-11-c" points="0 39.54 44.507 39.54 44.507 .738 0 .738"/>
  </defs>
  <g fill="none" fill-rule="evenodd">
    <g transform="translate(0 .442)">
      <mask id="group-11-b" fill="#fff">
        <use xlink:href="#group-11-a"/>
      </mask>
      <path fill="#D43021" d="M42.5902131,37.181877 L1.91685246,37.181877 L1.91685246,35.1782705 C1.91685246,34.4081066 2.54316393,33.7810574 3.31406557,33.7810574 L41.1922623,33.7810574 C41.9631639,33.7810574 42.5902131,34.4081066 42.5902131,35.1782705 L42.5902131,37.181877 Z M4.58144262,31.8637623 L39.9263607,31.8637623 L39.9263607,2.21245082 L4.58144262,2.21245082 L4.58144262,31.8637623 Z M41.8421803,31.9286803 L41.8421803,1.25417213 C41.8421803,0.725237705 41.4135738,0.295893443 40.8839016,0.295893443 L3.62316393,0.295893443 C3.0934918,0.295893443 2.66414754,0.725237705 2.66414754,1.25417213 L2.66414754,31.9286803 C1.14742623,32.231877 0.000295081967,33.5730246 0.000295081967,35.1782705 L0.000295081967,38.1401557 C0.000295081967,38.6690902 0.428901639,39.0984344 0.957836066,39.0984344 L43.5484918,39.0984344 C44.0781639,39.0984344 44.5067705,38.6690902 44.5067705,38.1401557 L44.5067705,35.1782705 C44.5067705,33.5730246 43.3596393,32.231877 41.8421803,31.9286803 L41.8421803,31.9286803 Z" mask="url(#group-11-b)"/>
    </g>
    <mask id="group-11-d" fill="#fff">
      <use xlink:href="#group-11-c"/>
    </mask>
    <path fill="#D43021" d="M8.83991803 28.0473934L19.1655738 28.0473934 19.1655738 6.91362295 8.83991803 6.91362295 8.83991803 28.0473934zM20.1238525 4.99706557L7.88237705 4.99706557C7.35270492 4.99706557 6.92336066 5.42567213 6.92336066 5.95460656L6.92336066 29.0049344C6.92336066 29.5346066 7.35270492 29.9632131 7.88237705 29.9632131L20.1238525 29.9632131C20.6535246 29.9632131 21.0821311 29.5346066 21.0821311 29.0049344L21.0821311 5.95460656C21.0821311 5.42567213 20.6535246 4.99706557 20.1238525 4.99706557L20.1238525 4.99706557zM25.3409016 28.0473934L35.6665574 28.0473934 35.6665574 6.91362295 25.3409016 6.91362295 25.3409016 28.0473934zM36.6248361 4.99706557L24.382623 4.99706557C23.8536885 4.99706557 23.4243443 5.42567213 23.4243443 5.95460656L23.4243443 29.0049344C23.4243443 29.5346066 23.8536885 29.9632131 24.382623 29.9632131L36.6248361 29.9632131C37.1545082 29.9632131 37.5831148 29.5346066 37.5831148 29.0049344L37.5831148 5.95460656C37.5831148 5.42567213 37.1545082 4.99706557 36.6248361 4.99706557L36.6248361 4.99706557z" mask="url(#group-11-d)"/>
    <path fill="#D43021" d="M11.8728443 17.075582C12.0299754 17.075582 12.188582 17.0372213 12.3353852 16.9560738L16.5948934 14.6020574C17.0574344 14.3468115 17.2256311 13.7632869 16.9696475 13.3000082 16.7136639 12.8367295 16.130877 12.6685328 15.6675984 12.9252541L11.4088279 15.2785328C10.9455492 15.5345164 10.7773525 16.1173033 11.0333361 16.580582 11.2081721 16.8970574 11.5349754 17.075582 11.8728443 17.075582M11.8728443 22.1548279C12.0299754 22.1548279 12.188582 22.1164672 12.3353852 22.0353197L16.5948934 19.6813033C17.0574344 19.4260574 17.2256311 18.8425328 16.9696475 18.3792541 16.7136639 17.9159754 16.130877 17.7477787 15.6675984 18.0045L11.4088279 20.3577787C10.9455492 20.6137623 10.7773525 21.1965492 11.0333361 21.6598279 11.2081721 21.9763033 11.5349754 22.1548279 11.8728443 22.1548279M28.3767787 17.075582C28.5331721 17.075582 28.6925164 17.0372213 28.8393197 16.9560738L33.0980902 14.6020574C33.5613689 14.3468115 33.7295656 13.7632869 33.473582 13.3000082 33.2175984 12.8367295 32.6348115 12.6685328 32.1715328 12.9252541L27.9127623 15.2785328C27.4494836 15.5345164 27.2812869 16.1173033 27.5372705 16.580582 27.7121066 16.8970574 28.0389098 17.075582 28.3767787 17.075582M28.3767787 22.1548279C28.5331721 22.1548279 28.6925164 22.1164672 28.8393197 22.0353197L33.0980902 19.6813033C33.5613689 19.4260574 33.7295656 18.8425328 33.473582 18.3792541 33.2175984 17.9159754 32.6348115 17.7477787 32.1715328 18.0045L27.9127623 20.3577787C27.4494836 20.6137623 27.2812869 21.1965492 27.5372705 21.6598279 27.7121066 21.9763033 28.0389098 22.1548279 28.3767787 22.1548279" mask="url(#group-11-d)"/>
  </g>
</svg>
