<?xml version="1.0" encoding="UTF-8"?>
<svg width="73px" height="26px" viewBox="0 0 73 26" version="1.1" xmlns="http://www.w3.org/2000/svg" xmlns:xlink="http://www.w3.org/1999/xlink">
    <!-- Generator: Sketch 52.6 (67491) - http://www.bohemiancoding.com/sketch -->
    <title>rexall_logo</title>
    <desc>Created with Sketch.</desc>
    <g id="Page-1" stroke="none" stroke-width="1" fill="none" fill-rule="evenodd">
        <g id="Home" transform="translate(-336.000000, -1898.000000)" fill="#18A7A0">
            <g id="rexall_logo" transform="translate(336.000000, 1898.000000)">
                <g id="Group-9">
                    <path d="M8.5848,10.5308595 L4.50668308,10.5308595 L4.50668308,4.22618182 L8.5848,4.22618182 C10.0430031,4.22618182 11.2074092,5.08482645 11.2074092,7.37984573 C11.2074092,9.66956474 10.0430031,10.5308595 8.5848,10.5308595 M15.8704246,7.09098072 C15.8704246,3.09987328 13.2720738,0.502738292 8.5848,0.502738292 L0,0.502738292 L0,22.5624848 L4.50668308,22.5624848 L4.50668308,14.254303 L6.77080615,14.254303 C8.81121231,17.4053168 11.1103754,20.8239945 13.3098092,24.1605179 C13.9836554,25.1781708 15.1642338,25.7161488 16.3555938,25.7161488 L19.65744,25.7161488 L11.4985108,13.7004242 C14.7033231,12.5343636 15.8704246,10.5467603 15.8704246,7.09098072" id="Fill-6"></path>
                    <path d="M34.2259938,6.81801653 L31.3581046,6.81801653 L36.5494154,14.4159614 L30.73008,22.5730854 L33.7677785,22.5730854 C35.0507815,22.5730854 36.0912,22.045708 36.8000862,21.0174545 L38.9698708,18.0068981 C40.3094769,19.9255978 40.5601477,20.3443196 41.0210585,21.0174545 C41.7272492,22.045708 42.7703631,22.5730854 44.0533662,22.5730854 L46.9212554,22.5730854 C46.9212554,22.5730854 37.3849846,8.55120661 37.2583015,8.36834711 C36.5521108,7.34009366 35.5116923,6.81801653 34.2259938,6.81801653" id="Fill-7"></path>
                    <path d="M64.0935508,0.502738292 L62.4897969,0.502738292 L62.4897969,22.5730854 L66.5706092,22.5730854 L66.5706092,2.75800551 C66.5706092,1.41173554 65.4601108,0.502738292 64.0935508,0.502738292" id="Fill-8"></path>
                </g>
                <path d="M70.5653244,0.787878788 L68.989011,0.787878788 L68.989011,22.8484848 L73,22.8484848 L73,3.04621823 C73,1.69811431 71.9085023,0.787878788 70.5653244,0.787878788" id="Fill-10"></path>
                <path d="M24.3170915,9.66329299 C26.3050892,9.66329299 27.0572327,10.4805838 27.1901202,12.4925769 L21.164999,12.4925769 C21.2952288,10.4805838 22.3290939,9.66329299 24.3170915,9.66329299 M27.0466017,18.6769178 L24.6041286,18.6769178 C22.4327462,18.6769178 21.164999,17.8362015 21.164999,15.5873502 L31.2192705,15.5873502 C31.2192705,15.5873502 31.2857143,14.392648 31.2857143,13.6170025 C31.2192705,8.85120782 28.6253057,6.3030303 24.3170915,6.3030303 C19.7191825,6.3030303 16.8461538,8.85120782 16.8461538,14.1818182 C16.8461538,19.5254427 19.2886269,22.0606061 24.3170915,22.0606061 L29.4890747,22.0606061 L29.4890747,20.9257691 C29.4890747,19.6035278 28.3940813,18.6769178 27.0466017,18.6769178" id="Fill-11"></path>
                <path d="M56.9053539,19.4080587 L53.133603,19.4080587 C52.2611339,19.4080587 51.3913494,19.1403522 51.3913494,17.8336264 C51.3913494,16.5613579 52.2611339,16.2565436 53.133603,16.2565436 L56.9053539,16.2565436 L56.9053539,19.4080587 Z M54.0033876,7.09090909 L48.7819958,7.09090909 L48.7819958,8.22534852 C48.7819958,9.56918215 49.8853336,10.5339858 51.2463853,10.5339858 L53.7134594,10.5339858 C55.9067124,10.5339858 56.8973003,11.1091572 56.8973003,13.1050284 L52.5537466,13.1050284 C49.3591676,13.1050284 47.3296703,14.5469327 47.3296703,17.8336264 C47.3296703,21.138874 49.3591676,22.8484848 52.5537466,22.8484848 L60.967033,22.8484848 L60.967033,13.9744119 C60.967033,9.10268369 58.9375357,7.09090909 54.0033876,7.09090909 Z" id="Fill-12"></path>
                <path d="M40.9120879,11.8181818 L44.0024146,11.8181818 C44.7254993,11.8181818 45.3452863,11.5449593 45.7929102,11.0970997 C46.2491423,10.6548736 46.5274725,10.0464605 46.5274725,9.33664531 L46.5274725,6.3030303 L43.4371459,6.3030303 C42.7140611,6.3030303 42.0942741,6.57625282 41.6437808,7.02411242 C41.1904182,7.46633856 40.9120879,8.0747516 40.9120879,8.78456681 L40.9120879,11.8181818" id="Fill-13"></path>
            </g>
        </g>
    </g>
</svg>